<svg xmlns="http://www.w3.org/2000/svg" xmlns:xlink="http://www.w3.org/1999/xlink" id="Layer_1" x="0" y="0" version="1.1" viewBox="0 0 50 50" xml:space="preserve" style="enable-background:new 0 0 50 50"><style type="text/css">.st0{fill:#027acc}.st1{opacity:.2}.st2{fill:#fff}.st3{fill:none}.st4{opacity:.4;fill:#027acc}.st5{opacity:.2;fill:#fff}</style><g><g><rect width="3.3" height="7.8" x="34.4" class="st0"/><rect width="3.3" height="7.8" x="27" y="0" class="st0"/><rect width="3.3" height="7.8" x="19.6" y="0" class="st0"/><rect width="3.3" height="7.8" x="12.2" y="0" class="st0"/></g><g><rect width="3.3" height="7.8" x="34.4" y="42.2" class="st0"/><rect width="3.3" height="7.8" x="27" y="42.2" class="st0"/><rect width="3.3" height="7.8" x="19.6" y="42.2" class="st0"/><rect width="3.3" height="7.8" x="12.2" y="42.2" class="st0"/></g><g class="st1"><rect width="3.3" height="7.8" x="34.4" class="st2"/><rect width="3.3" height="7.8" x="27" y="0" class="st2"/><rect width="3.3" height="7.8" x="19.6" y="0" class="st2"/><rect width="3.3" height="7.8" x="12.2" y="0" class="st2"/></g><g class="st1"><rect width="3.3" height="7.8" x="34.4" y="42.2" class="st2"/><rect width="3.3" height="7.8" x="27" y="42.2" class="st2"/><rect width="3.3" height="7.8" x="19.6" y="42.2" class="st2"/><rect width="3.3" height="7.8" x="12.2" y="42.2" class="st2"/></g><g><rect width="7.8" height="3.3" x="42.2" y="34.5" class="st0"/><rect width="7.8" height="3.3" x="42.2" y="27.1" class="st0"/><rect width="7.8" height="3.3" x="42.2" y="19.6" class="st0"/><rect width="7.8" height="3.3" x="42.2" y="12.2" class="st0"/></g><g><rect width="7.8" height="3.3" x="0" y="34.5" class="st0"/><rect width="7.8" height="3.3" x="0" y="27.1" class="st0"/><rect width="7.8" height="3.3" x="0" y="19.6" class="st0"/><rect width="7.8" height="3.3" y="12.2" class="st0"/></g><g class="st1"><rect width="7.8" height="3.3" x="42.2" y="34.5" class="st2"/><rect width="7.8" height="3.3" x="42.2" y="27.1" class="st2"/><rect width="7.8" height="3.3" x="42.2" y="19.6" class="st2"/><rect width="7.8" height="3.3" x="42.2" y="12.2" class="st2"/></g><g class="st1"><rect width="7.8" height="3.3" x="0" y="34.5" class="st2"/><rect width="7.8" height="3.3" x="0" y="27.1" class="st2"/><rect width="7.8" height="3.3" x="0" y="19.6" class="st2"/><rect width="7.8" height="3.3" y="12.2" class="st2"/></g><rect width="49.5" height="50" x=".5" class="st3"/></g><g><path d="M5.9,5.9v38.2h38.2V5.9H5.9z M41.7,41.7H8.3V8.3h33.4V41.7z" class="st0"/><path d="M8.3,41.7h33.4V8.3H8.3V41.7z M12.2,12.2h25.6v25.6H12.2V12.2z" class="st4"/><path d="M37.8,12.2H12.2v25.6h25.6V12.2z M34.5,34.5h-19v-19h19V34.5z" class="st0"/><path d="M5.9,5.9v38.2h38.2V5.9H5.9z M41.7,41.7H8.3V8.3h33.4V41.7z" class="st5"/><path d="M37.8,12.2H12.2v25.6h25.6V12.2z M34.5,34.5h-19v-19h19V34.5z" class="st5"/><rect width="19" height="19" x="15.5" y="15.5" class="st4"/></g></svg>