<svg xmlns="http://www.w3.org/2000/svg" xmlns:xlink="http://www.w3.org/1999/xlink" id="Layer_1" x="0" y="0" version="1.1" viewBox="0 0 50 50" xml:space="preserve" style="enable-background:new 0 0 50 50"><style type="text/css">.st0{fill:#00e200}.st1{opacity:.4;fill:#fff;enable-background:new}.st2{fill:#1e1e1e}.st2,.st3{opacity:.2;enable-background:new}.st4{opacity:.2;fill:#fff}</style><polygon points="0 8 0 21 11.3 27.5 11.3 14.5 8.5 12.9" class="st0"/><polygon points="50 21 50 8 41.5 12.9 38.7 14.5 38.7 27.5" class="st0"/><polygon points="37.1 43.4 37.1 30.4 28.6 35.3 25.8 36.9 25.8 49.9" class="st0"/><polygon points="12.9 30.4 12.9 43.4 24.2 49.9 24.2 36.9 21.4 35.3" class="st0"/><g><polygon points="14.9 11.5 23.4 6.6 12.1 .1 .8 6.6 9.3 11.5 12.1 13.1" class="st0"/><polygon points="24.2 21 24.2 8 15.7 12.9 12.9 14.5 12.9 27.5" class="st0"/><polygon points="40.7 11.5 49.2 6.6 37.9 .1 26.6 6.6 35.1 11.5 37.9 13.1" class="st0"/><polygon points="25.8 8 25.8 21 37.1 27.5 37.1 14.5 34.3 12.9" class="st0"/><polygon points="27.8 33.9 36.3 29 25 22.5 13.7 29 22.2 33.9 25 35.5" class="st0"/><polygon points="14.9 11.5 23.4 6.6 12.1 .1 .8 6.6 9.3 11.5 12.1 13.1" class="st1"/><polygon points="24.2 21 24.2 8 15.7 12.9 12.9 14.5 12.9 27.5" class="st2"/><polygon points="40.7 11.5 49.2 6.6 37.9 .1 26.6 6.6 35.1 11.5 37.9 13.1" class="st1"/><polygon points="25.8 8 25.8 21 37.1 27.5 37.1 14.5 34.3 12.9" class="st3"/><polygon points="27.8 33.9 36.3 29 25 22.5 13.7 29 22.2 33.9 25 35.5" class="st2"/></g><polygon points="0 8 0 21 11.3 27.5 11.3 14.5 8.5 12.9" class="st4"/><polygon points="50 21 50 8 41.5 12.9 38.7 14.5 38.7 27.5" class="st4"/><polygon points="37.1 43.4 37.1 30.4 28.6 35.3 25.8 36.9 25.8 49.9" class="st4"/><polygon points="12.9 30.4 12.9 43.4 24.2 49.9 24.2 36.9 21.4 35.3" class="st4"/></svg>